<svg width="23" height="24" viewBox="0 0 23 24" fill="none" xmlns="http://www.w3.org/2000/svg">
<path d="M10.6953 11.8438H12.1027V18.8809H10.6953V11.8438Z" fill="#F24E1E"/>
<path d="M4.36446 20.2878H18.4388C18.4388 19.9146 18.2905 19.5566 18.0266 19.2926C17.7626 19.0287 17.4046 18.8804 17.0314 18.8804H5.7719C5.39862 18.8804 5.04064 19.0287 4.77669 19.2926C4.51275 19.5566 4.36446 19.9146 4.36446 20.2878ZM5.7719 17.473H17.0314C17.7779 17.473 18.4939 17.7695 19.0218 18.2974C19.5497 18.8253 19.8462 19.5413 19.8462 20.2878V21.6953H2.95703V20.2878C2.95703 19.5413 3.2536 18.8253 3.78149 18.2974C4.30938 17.7695 5.02535 17.473 5.7719 17.473ZM11.4016 11.8432C12.5215 11.8432 13.5954 11.3984 14.3872 10.6066C15.1791 9.81472 15.6239 8.74077 15.6239 7.62094C15.6239 6.50112 15.1791 5.42716 14.3872 4.63533C13.5954 3.84349 12.5215 3.39864 11.4016 3.39864C10.2818 3.39864 9.20785 3.84349 8.41601 4.63533C7.62418 5.42716 7.17933 6.50112 7.17933 7.62094C7.17933 8.74077 7.62418 9.81472 8.41601 10.6066C9.20785 11.3984 10.2818 11.8432 11.4016 11.8432ZM11.4016 13.2507C9.90853 13.2507 8.47659 12.6575 7.42081 11.6018C6.36503 10.546 5.7719 9.11404 5.7719 7.62094C5.7719 6.12784 6.36503 4.6959 7.42081 3.64012C8.47659 2.58434 9.90853 1.99121 11.4016 1.99121C12.8947 1.99121 14.3267 2.58434 15.3825 3.64012C16.4382 4.6959 17.0314 6.12784 17.0314 7.62094C17.0314 9.11404 16.4382 10.546 15.3825 11.6018C14.3267 12.6575 12.8947 13.2507 11.4016 13.2507Z" fill="#FF4D35"/>
<path d="M4.36446 20.2878H18.4388C18.4388 19.9146 18.2905 19.5566 18.0266 19.2926C17.7626 19.0287 17.4046 18.8804 17.0314 18.8804H5.7719C5.39862 18.8804 5.04064 19.0287 4.77669 19.2926C4.51275 19.5566 4.36446 19.9146 4.36446 20.2878ZM5.7719 17.473H17.0314C17.7779 17.473 18.4939 17.7695 19.0218 18.2974C19.5497 18.8253 19.8462 19.5413 19.8462 20.2878V21.6953H2.95703V20.2878C2.95703 19.5413 3.2536 18.8253 3.78149 18.2974C4.30938 17.7695 5.02535 17.473 5.7719 17.473ZM11.4016 11.8432C12.5215 11.8432 13.5954 11.3984 14.3872 10.6066C15.1791 9.81472 15.6239 8.74077 15.6239 7.62094C15.6239 6.50112 15.1791 5.42716 14.3872 4.63533C13.5954 3.84349 12.5215 3.39864 11.4016 3.39864C10.2818 3.39864 9.20785 3.84349 8.41601 4.63533C7.62418 5.42716 7.17933 6.50112 7.17933 7.62094C7.17933 8.74077 7.62418 9.81472 8.41601 10.6066C9.20785 11.3984 10.2818 11.8432 11.4016 11.8432ZM11.4016 13.2507C9.90853 13.2507 8.47659 12.6575 7.42081 11.6018C6.36503 10.546 5.7719 9.11404 5.7719 7.62094C5.7719 6.12784 6.36503 4.6959 7.42081 3.64012C8.47659 2.58434 9.90853 1.99121 11.4016 1.99121C12.8947 1.99121 14.3267 2.58434 15.3825 3.64012C16.4382 4.6959 17.0314 6.12784 17.0314 7.62094C17.0314 9.11404 16.4382 10.546 15.3825 11.6018C14.3267 12.6575 12.8947 13.2507 11.4016 13.2507Z" fill="#FF4D35"/>
<path d="M10.6953 11.8438H12.1027V18.8809H10.6953V11.8438Z" fill="#F24E1E"/>
</svg>
