<svg width="14" height="20" viewBox="0 0 14 20" fill="none" xmlns="http://www.w3.org/2000/svg">
<path d="M2.43488 0.909777L3.44542 0.587006C4.39121 0.284877 5.40269 0.773725 5.80803 1.7289L6.61495 3.63175C6.96681 4.46026 6.77165 5.43514 6.13267 6.04128L4.35649 7.72832C4.46596 8.73792 4.805 9.73157 5.3736 10.7093C5.91431 11.6549 6.63882 12.4828 7.50445 13.1441L9.64 12.431C10.4488 12.1617 11.3299 12.4723 11.8262 13.2014L12.9822 14.8997C13.5602 15.7479 13.456 16.917 12.7401 17.6357L11.9726 18.406C11.2088 19.1726 10.1185 19.4513 9.10892 19.136C6.72692 18.3929 4.53665 16.187 2.53809 12.5183C0.537034 8.84332 -0.169184 5.7257 0.419435 3.16542C0.667143 2.08827 1.43466 1.22973 2.43676 0.909777" fill="#777777"/>
</svg>
