<svg width="22" height="22" viewBox="0 0 22 22" fill="none" xmlns="http://www.w3.org/2000/svg">
<path d="M21.6777 20.1212C21.7799 20.2234 21.8609 20.3448 21.9162 20.4783C21.9715 20.6118 22 20.7549 22 20.8994C22 21.044 21.9715 21.1871 21.9162 21.3206C21.8609 21.4541 21.7799 21.5755 21.6777 21.6777C21.5755 21.7799 21.4541 21.8609 21.3206 21.9162C21.1871 21.9715 21.044 22 20.8994 22C20.7549 22 20.6118 21.9715 20.4783 21.9162C20.3448 21.8609 20.2234 21.7799 20.1212 21.6777L11 12.555L1.87876 21.6777C1.67236 21.884 1.39243 22 1.10055 22C0.808666 22 0.528737 21.884 0.322344 21.6777C0.11595 21.4713 5.75373e-09 21.1913 0 20.8994C-5.75373e-09 20.6076 0.11595 20.3276 0.322344 20.1212L9.44496 11L0.322344 1.87876C0.11595 1.67236 -2.17471e-09 1.39243 0 1.10055C2.17471e-09 0.808666 0.11595 0.528737 0.322344 0.322344C0.528737 0.11595 0.808666 2.17471e-09 1.10055 0C1.39243 -2.17471e-09 1.67236 0.11595 1.87876 0.322344L11 9.44496L20.1212 0.322344C20.3276 0.11595 20.6076 -5.75373e-09 20.8994 0C21.1913 5.75373e-09 21.4713 0.11595 21.6777 0.322344C21.884 0.528737 22 0.808666 22 1.10055C22 1.39243 21.884 1.67236 21.6777 1.87876L12.555 11L21.6777 20.1212Z" fill="#A8A8A8"/>
</svg>
