<svg width="16" height="9" viewBox="0 0 16 9" fill="none" xmlns="http://www.w3.org/2000/svg">
<path fill-rule="evenodd" clip-rule="evenodd" d="M8.8644 8.6564C8.63904 8.87641 8.33343 9 8.01477 9C7.69611 9 7.3905 8.87641 7.16514 8.6564L0.366878 2.01766C0.252099 1.90941 0.160548 1.77991 0.0975657 1.63673C0.0345836 1.49356 0.00143196 1.33956 4.53735e-05 1.18374C-0.00134122 1.02792 0.0290652 0.873388 0.0894899 0.729164C0.149915 0.584939 0.239148 0.45391 0.351983 0.343723C0.464817 0.233536 0.598994 0.146396 0.746684 0.0873895C0.894373 0.0283827 1.05262 -0.00130975 1.21219 4.43096e-05C1.37175 0.00139836 1.52944 0.0337721 1.67606 0.0952764C1.82268 0.156781 1.95529 0.246183 2.06614 0.358269L8.01477 6.16732L13.9634 0.358269C14.19 0.144498 14.4936 0.0262117 14.8087 0.0288856C15.1238 0.0315594 15.4252 0.15498 15.648 0.372564C15.8708 0.590149 15.9972 0.884489 16 1.19219C16.0027 1.49989 15.8816 1.79633 15.6627 2.01766L8.8644 8.6564Z" fill="#FF4D35"/>
</svg>
