<svg width="37" height="31" viewBox="0 0 37 31" fill="none" xmlns="http://www.w3.org/2000/svg">
<path d="M37 10.0128C37 21.3175 19.8561 30.4679 19.126 30.8458C18.9336 30.947 18.7185 31 18.5 31C18.2815 31 18.0664 30.947 17.874 30.8458C17.1439 30.4679 0 21.3175 0 10.0128C0.00306033 7.35814 1.08301 4.81309 3.00292 2.93598C4.92283 1.05887 7.52591 0.0029921 10.2411 0C13.652 0 16.6384 1.43409 18.5 3.85815C20.3616 1.43409 23.348 0 26.7589 0C29.4741 0.0029921 32.0772 1.05887 33.9971 2.93598C35.917 4.81309 36.9969 7.35814 37 10.0128Z" fill="#EA9A3C"/>
</svg>
