<svg width="37" height="31" viewBox="0 0 37 31" fill="none" xmlns="http://www.w3.org/2000/svg">
<path d="M26.9091 0C23.3773 0 20.3063 1.56134 18.5 4.17785C16.6937 1.56134 13.6227 0 10.0909 0C7.41559 0.00305444 4.85074 1.04626 2.959 2.90077C1.06726 4.75527 0.00311576 7.26965 0 9.89232C0 14.7066 3.06091 19.717 9.09864 24.7819C11.8653 27.093 14.8538 29.136 18.0224 30.8822C18.1692 30.9595 18.3333 31 18.5 31C18.6667 31 18.8308 30.9595 18.9776 30.8822C22.1462 29.136 25.1347 27.093 27.9014 24.7819C33.9391 19.717 37 14.7066 37 9.89232C36.9969 7.26965 35.9327 4.75527 34.041 2.90077C32.1493 1.04626 29.5844 0.00305444 26.9091 0ZM18.5 28.8707C15.7401 27.3094 2.01818 19.079 2.01818 9.89232C2.02041 7.7941 2.87164 5.78245 4.38509 4.29879C5.89854 2.81513 7.95057 1.98065 10.0909 1.97846C13.5016 1.97846 16.3658 3.76403 17.5666 6.63939C17.6426 6.82083 17.7719 6.97601 17.9381 7.08523C18.1043 7.19444 18.2999 7.25275 18.5 7.25275C18.7001 7.25275 18.8957 7.19444 19.0619 7.08523C19.2281 6.97601 19.3574 6.82083 19.4334 6.63939C20.6342 3.76403 23.4984 1.97846 26.9091 1.97846C29.0494 1.98065 31.1015 2.81513 32.6149 4.29879C34.1284 5.78245 34.9796 7.7941 34.9818 9.89232C34.9818 19.079 21.2599 27.3094 18.5 28.8707Z" fill="#EA9A3C"/>
</svg>
