<svg width="218" height="115" viewBox="0 0 218 115" fill="none" xmlns="http://www.w3.org/2000/svg">
<path d="M19.3937 69.5512L12.9305 92.2146M4 89.663L21.8551 94.7541M9.98779 50.8717L21.6324 20L43.6157 26.2586L37.2247 58.6348C36.8508 60.5694 36.0787 62.4051 34.9575 64.0254C33.8363 65.6458 32.3904 67.0153 30.7117 68.047C29.033 69.0788 27.1582 69.7502 25.2062 70.0188C23.2541 70.2874 21.2676 70.1471 19.3726 69.607C17.4777 69.067 15.7157 68.1388 14.1986 66.8814C12.6815 65.6241 11.4424 64.0651 10.5599 62.3033C9.67739 60.5416 9.17083 58.6156 9.07234 56.6477C8.97386 54.6797 9.2856 52.7128 9.98779 50.8717Z" stroke="white" stroke-width="7" stroke-linecap="round" stroke-linejoin="round"/>
<path d="M15.8164 35.3867L40.4055 42.4577" stroke="white" stroke-width="7"/>
<path d="M48.4297 68.6365C50.9874 69.8984 53.8657 70.3617 56.6902 69.9661C59.5147 69.5705 62.155 68.3343 64.2676 66.4183C66.3803 64.5023 67.8677 61.9951 68.5366 59.2225C69.2054 56.4499 69.0247 53.5402 68.0179 50.8717L56.3613 20L52.895 20.9809M58.6059 69.5512L65.0691 92.2146M73.9997 89.663L56.1446 94.7541M62.1805 35.4599L52.1367 38.3485" stroke="white" stroke-width="7" stroke-linecap="round" stroke-linejoin="round"/>
<path d="M81.3116 50L85.2956 22.784H84.2876L84.9596 16.4H96.1436L101.088 50H94.6076L93.8876 45.2H88.5116L87.7916 50H81.3116ZM89.4236 38.816H92.9756L91.1996 26.816L89.4236 38.816ZM103.927 50.048V22.832H103.015L103.687 16.448H110.455V43.616H119.623L119.239 50H110.455V50.048H103.927ZM137.466 36.08V43.52C137.466 45.952 136.922 47.712 135.834 48.8C134.778 49.856 133.018 50.384 130.554 50.384H128.442C125.978 50.384 124.202 49.856 123.114 48.8C122.058 47.712 121.53 45.952 121.53 43.52V22.88C121.53 20.416 122.058 18.656 123.114 17.6C124.202 16.544 125.978 16.016 128.442 16.016H130.554C133.018 16.016 134.778 16.544 135.834 17.6C136.922 18.656 137.466 20.416 137.466 22.88V30.8L130.938 30.08V22.64C130.938 22.48 130.858 22.4 130.698 22.4H128.298C128.138 22.4 128.058 22.48 128.058 22.64V43.76C128.058 43.92 128.138 44 128.298 44H130.698C130.858 44 130.938 43.92 130.938 43.76V36.08H137.466ZM155.326 43.328C155.326 45.76 154.782 47.52 153.694 48.608C152.638 49.664 150.878 50.192 148.414 50.192H146.302C143.838 50.192 142.062 49.664 140.974 48.608C139.918 47.52 139.39 45.76 139.39 43.328V23.072C139.39 20.608 139.918 18.848 140.974 17.792C142.062 16.736 143.838 16.208 146.302 16.208H148.414C150.878 16.208 152.638 16.736 153.694 17.792C154.782 18.848 155.326 20.608 155.326 23.072V43.328ZM146.158 22.592C145.998 22.592 145.918 22.672 145.918 22.832V43.568C145.918 43.728 145.998 43.808 146.158 43.808H148.558C148.718 43.808 148.798 43.728 148.798 43.568V22.832C148.798 22.672 148.718 22.592 148.558 22.592H146.158ZM158.161 50V22.784H157.249L157.921 16.4H164.689V30.992H167.329V16.4H173.857V50H167.329V37.376H164.689V50H158.161ZM192.169 43.328C192.169 45.76 191.625 47.52 190.537 48.608C189.481 49.664 187.721 50.192 185.257 50.192H183.145C180.681 50.192 178.905 49.664 177.817 48.608C176.761 47.52 176.233 45.76 176.233 43.328V23.072C176.233 20.608 176.761 18.848 177.817 17.792C178.905 16.736 180.681 16.208 183.145 16.208H185.257C187.721 16.208 189.481 16.736 190.537 17.792C191.625 18.848 192.169 20.608 192.169 23.072V43.328ZM183.001 22.592C182.841 22.592 182.761 22.672 182.761 22.832V43.568C182.761 43.728 182.841 43.808 183.001 43.808H185.401C185.561 43.808 185.641 43.728 185.641 43.568V22.832C185.641 22.672 185.561 22.592 185.401 22.592H183.001ZM195.005 50.048V22.832H194.093L194.765 16.448H201.533V43.616H210.701L210.317 50H201.533V50.048H195.005Z" fill="white"/>
<path d="M105.81 103V75.784H104.898L105.57 69.4H112.338V83.992H114.978V69.4H121.506V103H114.978V90.376H112.338V103H105.81ZM139.818 96.328C139.818 98.76 139.274 100.52 138.186 101.608C137.13 102.664 135.37 103.192 132.906 103.192H130.794C128.33 103.192 126.554 102.664 125.466 101.608C124.41 100.52 123.882 98.76 123.882 96.328V76.072C123.882 73.608 124.41 71.848 125.466 70.792C126.554 69.736 128.33 69.208 130.794 69.208H132.906C135.37 69.208 137.13 69.736 138.186 70.792C139.274 71.848 139.818 73.608 139.818 76.072V96.328ZM130.65 75.592C130.49 75.592 130.41 75.672 130.41 75.832V96.568C130.41 96.728 130.49 96.808 130.65 96.808H133.05C133.21 96.808 133.29 96.728 133.29 96.568V75.832C133.29 75.672 133.21 75.592 133.05 75.592H130.65ZM142.653 103.048V75.832H141.741L142.413 69.448H149.181V96.616H158.349L157.965 103H149.181V103.048H142.653ZM160.466 103V75.784H159.554L160.226 69.4H166.994V103H160.466ZM185.099 89.08V96.52C185.099 98.952 184.555 100.712 183.467 101.8C182.411 102.856 180.651 103.384 178.187 103.384H176.075C173.611 103.384 171.835 102.856 170.747 101.8C169.691 100.712 169.163 98.952 169.163 96.52V75.88C169.163 73.416 169.691 71.656 170.747 70.6C171.835 69.544 173.611 69.016 176.075 69.016H178.187C180.651 69.016 182.411 69.544 183.467 70.6C184.555 71.656 185.099 73.416 185.099 75.88V83.8L178.571 83.08V75.64C178.571 75.48 178.491 75.4 178.331 75.4H175.931C175.771 75.4 175.691 75.48 175.691 75.64V96.76C175.691 96.92 175.771 97 175.931 97H178.331C178.491 97 178.571 96.92 178.571 96.76V89.08H185.099Z" fill="white"/>
</svg>
