<svg width="144" height="144" viewBox="0 0 144 144" fill="none" xmlns="http://www.w3.org/2000/svg">
<path fill-rule="evenodd" clip-rule="evenodd" d="M97.6878 73.3142C98.1068 73.7322 98.4393 74.2288 98.6662 74.7755C98.893 75.3222 99.0098 75.9083 99.0098 76.5002C99.0098 77.0921 98.893 77.6782 98.6662 78.2249C98.4393 78.7716 98.1068 79.2682 97.6878 79.6862L70.6878 106.686C70.2698 107.105 69.7732 107.438 69.2265 107.665C68.6798 107.891 68.0937 108.008 67.5018 108.008C66.9099 108.008 66.3238 107.891 65.7771 107.665C65.2304 107.438 64.7338 107.105 64.3158 106.686L50.8158 93.1862C50.3974 92.7678 50.0655 92.2711 49.8391 91.7245C49.6126 91.1778 49.4961 90.5919 49.4961 90.0002C49.4961 89.4085 49.6126 88.8226 49.8391 88.276C50.0655 87.7293 50.3974 87.2326 50.8158 86.8142C51.6608 85.9692 52.8068 85.4945 54.0018 85.4945C54.5935 85.4945 55.1794 85.6111 55.726 85.8375C56.2727 86.064 56.7694 86.3958 57.1878 86.8142L67.5018 97.1372L91.3158 73.3142C91.7338 72.8952 92.2304 72.5627 92.7771 72.3358C93.3238 72.109 93.9099 71.9922 94.5018 71.9922C95.0937 71.9922 95.6798 72.109 96.2265 72.3358C96.7732 72.5627 97.2698 72.8952 97.6878 73.3142Z" fill="#FF4D35"/>
<path d="M72 9C77.9674 9 83.6903 11.3705 87.9099 15.5901C92.1295 19.8097 94.5 25.5326 94.5 31.5V36H49.5V31.5C49.5 25.5326 51.8705 19.8097 56.0901 15.5901C60.3097 11.3705 66.0326 9 72 9ZM103.5 36V31.5C103.5 23.1457 100.181 15.1335 94.2739 9.22614C88.3665 3.31874 80.3543 0 72 0C63.6457 0 55.6335 3.31874 49.7261 9.22614C43.8187 15.1335 40.5 23.1457 40.5 31.5V36H9V126C9 130.774 10.8964 135.352 14.2721 138.728C17.6477 142.104 22.2261 144 27 144H117C121.774 144 126.352 142.104 129.728 138.728C133.104 135.352 135 130.774 135 126V36H103.5ZM18 45H126V126C126 128.387 125.052 130.676 123.364 132.364C121.676 134.052 119.387 135 117 135H27C24.6131 135 22.3239 134.052 20.636 132.364C18.9482 130.676 18 128.387 18 126V45Z" fill="#FF4D35"/>
</svg>
