<svg width="16" height="16" viewBox="0 0 16 16" fill="none" xmlns="http://www.w3.org/2000/svg">
<path fill-rule="evenodd" clip-rule="evenodd" d="M15.1611 7.66744C15.1611 8.65318 14.9669 9.62927 14.5897 10.54C14.2124 11.4507 13.6595 12.2782 12.9625 12.9752C12.2655 13.6722 11.438 14.2251 10.5273 14.6024C9.61658 14.9796 8.64049 15.1738 7.65475 15.1738C6.669 15.1738 5.69291 14.9796 4.78221 14.6024C3.8715 14.2251 3.04401 13.6722 2.34698 12.9752C1.64996 12.2782 1.09705 11.4507 0.719821 10.54C0.342594 9.62927 0.148437 8.65318 0.148438 7.66744C0.148438 5.67664 0.939278 3.76739 2.34698 2.35968C3.75469 0.951974 5.66395 0.161133 7.65475 0.161133C9.64554 0.161133 11.5548 0.951974 12.9625 2.35968C14.3702 3.76739 15.1611 5.67664 15.1611 7.66744ZM8.07176 7.4948V3.47225C8.07176 3.36165 8.02783 3.25558 7.94962 3.17737C7.87142 3.09917 7.76535 3.05523 7.65475 3.05523C7.54415 3.05523 7.43808 3.09917 7.35987 3.17737C7.28166 3.25558 7.23773 3.36165 7.23773 3.47225V7.65493C7.23585 7.71184 7.24569 7.76852 7.26663 7.82146C7.28758 7.87441 7.31919 7.92248 7.3595 7.96269L9.71898 10.3213C9.75745 10.3612 9.80347 10.3929 9.85434 10.4148C9.90522 10.4366 9.95994 10.4482 10.0153 10.4486C10.0707 10.4491 10.1256 10.4386 10.1768 10.4176C10.2281 10.3966 10.2747 10.3657 10.3138 10.3265C10.353 10.2874 10.3839 10.2408 10.4049 10.1895C10.4259 10.1383 10.4364 10.0834 10.4359 10.028C10.4355 9.97264 10.424 9.91792 10.4021 9.86704C10.3802 9.81616 10.3485 9.77015 10.3086 9.73168L8.07176 7.4948Z" fill="#777777"/>
</svg>
